<mxfile host="app.diagrams.net" modified="2023-08-30T20:58:14.820Z" agent="Mozilla/5.0 (Windows NT 10.0; Win64; x64; rv:109.0) Gecko/20100101 Firefox/116.0" etag="5tt5lJr_hA2O1sehRZPD" version="21.6.8" type="github">
  <diagram id="C5RBs43oDa-KdzZeNtuy" name="Page-1">
    <mxGraphModel dx="1050" dy="1735" grid="1" gridSize="10" guides="1" tooltips="1" connect="1" arrows="1" fold="1" page="1" pageScale="1" pageWidth="827" pageHeight="1169" math="0" shadow="0">
      <root>
        <mxCell id="WIyWlLk6GJQsqaUBKTNV-0" />
        <mxCell id="WIyWlLk6GJQsqaUBKTNV-1" parent="WIyWlLk6GJQsqaUBKTNV-0" />
        <mxCell id="Wz6pm65x8kF1xeyHGKmY-0" value="Закусочная" style="rounded=0;whiteSpace=wrap;html=1;" parent="WIyWlLk6GJQsqaUBKTNV-1" vertex="1">
          <mxGeometry x="340" y="70" width="120" height="60" as="geometry" />
        </mxCell>
        <mxCell id="Wz6pm65x8kF1xeyHGKmY-1" value="Повар" style="ellipse;whiteSpace=wrap;html=1;aspect=fixed;" parent="WIyWlLk6GJQsqaUBKTNV-1" vertex="1">
          <mxGeometry x="240" y="280" width="80" height="80" as="geometry" />
        </mxCell>
        <mxCell id="Wz6pm65x8kF1xeyHGKmY-2" value="Официант" style="ellipse;whiteSpace=wrap;html=1;aspect=fixed;" parent="WIyWlLk6GJQsqaUBKTNV-1" vertex="1">
          <mxGeometry x="480" y="280" width="80" height="80" as="geometry" />
        </mxCell>
        <mxCell id="Wz6pm65x8kF1xeyHGKmY-3" value="Управляющий" style="ellipse;whiteSpace=wrap;html=1;aspect=fixed;" parent="WIyWlLk6GJQsqaUBKTNV-1" vertex="1">
          <mxGeometry x="360" y="160" width="80" height="80" as="geometry" />
        </mxCell>
        <mxCell id="Wz6pm65x8kF1xeyHGKmY-4" value="Уборщик" style="ellipse;whiteSpace=wrap;html=1;aspect=fixed;" parent="WIyWlLk6GJQsqaUBKTNV-1" vertex="1">
          <mxGeometry x="360" y="400" width="80" height="80" as="geometry" />
        </mxCell>
        <mxCell id="Wz6pm65x8kF1xeyHGKmY-5" value="" style="endArrow=classic;html=1;rounded=0;exitX=0.763;exitY=0.075;exitDx=0;exitDy=0;exitPerimeter=0;" parent="WIyWlLk6GJQsqaUBKTNV-1" source="Wz6pm65x8kF1xeyHGKmY-4" target="Wz6pm65x8kF1xeyHGKmY-2" edge="1">
          <mxGeometry width="50" height="50" relative="1" as="geometry">
            <mxPoint x="390" y="410" as="sourcePoint" />
            <mxPoint x="440" y="360" as="targetPoint" />
          </mxGeometry>
        </mxCell>
        <mxCell id="Wz6pm65x8kF1xeyHGKmY-6" value="" style="endArrow=classic;html=1;rounded=0;exitX=0;exitY=0;exitDx=0;exitDy=0;" parent="WIyWlLk6GJQsqaUBKTNV-1" source="Wz6pm65x8kF1xeyHGKmY-4" target="Wz6pm65x8kF1xeyHGKmY-1" edge="1">
          <mxGeometry width="50" height="50" relative="1" as="geometry">
            <mxPoint x="390" y="410" as="sourcePoint" />
            <mxPoint x="440" y="360" as="targetPoint" />
          </mxGeometry>
        </mxCell>
        <mxCell id="Wz6pm65x8kF1xeyHGKmY-7" value="" style="endArrow=classic;html=1;rounded=0;exitX=0.5;exitY=0;exitDx=0;exitDy=0;entryX=0.5;entryY=1;entryDx=0;entryDy=0;" parent="WIyWlLk6GJQsqaUBKTNV-1" source="Wz6pm65x8kF1xeyHGKmY-4" target="Wz6pm65x8kF1xeyHGKmY-3" edge="1">
          <mxGeometry width="50" height="50" relative="1" as="geometry">
            <mxPoint x="400" y="390" as="sourcePoint" />
            <mxPoint x="440" y="360" as="targetPoint" />
          </mxGeometry>
        </mxCell>
        <mxCell id="Wz6pm65x8kF1xeyHGKmY-16" value="" style="endArrow=classic;startArrow=classic;html=1;rounded=0;exitX=0.5;exitY=0;exitDx=0;exitDy=0;entryX=0.5;entryY=1;entryDx=0;entryDy=0;" parent="WIyWlLk6GJQsqaUBKTNV-1" source="Wz6pm65x8kF1xeyHGKmY-3" target="Wz6pm65x8kF1xeyHGKmY-0" edge="1">
          <mxGeometry width="50" height="50" relative="1" as="geometry">
            <mxPoint x="390" y="340" as="sourcePoint" />
            <mxPoint x="440" y="290" as="targetPoint" />
          </mxGeometry>
        </mxCell>
        <mxCell id="Wz6pm65x8kF1xeyHGKmY-17" value="" style="endArrow=classic;startArrow=classic;html=1;rounded=0;entryX=0;entryY=0.5;entryDx=0;entryDy=0;exitX=0.5;exitY=0;exitDx=0;exitDy=0;" parent="WIyWlLk6GJQsqaUBKTNV-1" source="Wz6pm65x8kF1xeyHGKmY-1" target="Wz6pm65x8kF1xeyHGKmY-0" edge="1">
          <mxGeometry width="50" height="50" relative="1" as="geometry">
            <mxPoint x="390" y="340" as="sourcePoint" />
            <mxPoint x="440" y="290" as="targetPoint" />
          </mxGeometry>
        </mxCell>
        <mxCell id="Wz6pm65x8kF1xeyHGKmY-18" value="" style="endArrow=classic;startArrow=classic;html=1;rounded=0;entryX=1;entryY=0.5;entryDx=0;entryDy=0;exitX=0.4;exitY=-0.025;exitDx=0;exitDy=0;exitPerimeter=0;" parent="WIyWlLk6GJQsqaUBKTNV-1" source="Wz6pm65x8kF1xeyHGKmY-2" target="Wz6pm65x8kF1xeyHGKmY-0" edge="1">
          <mxGeometry width="50" height="50" relative="1" as="geometry">
            <mxPoint x="390" y="340" as="sourcePoint" />
            <mxPoint x="440" y="290" as="targetPoint" />
          </mxGeometry>
        </mxCell>
        <mxCell id="Wz6pm65x8kF1xeyHGKmY-20" value="" style="endArrow=classic;startArrow=classic;html=1;rounded=0;exitX=0;exitY=0.5;exitDx=0;exitDy=0;entryX=0.5;entryY=0;entryDx=0;entryDy=0;" parent="WIyWlLk6GJQsqaUBKTNV-1" source="Wz6pm65x8kF1xeyHGKmY-4" target="Wz6pm65x8kF1xeyHGKmY-0" edge="1">
          <mxGeometry width="50" height="50" relative="1" as="geometry">
            <mxPoint x="390" y="340" as="sourcePoint" />
            <mxPoint x="360" y="40" as="targetPoint" />
            <Array as="points">
              <mxPoint x="150" y="410" />
              <mxPoint x="130" y="150" />
              <mxPoint x="240" y="20" />
            </Array>
          </mxGeometry>
        </mxCell>
        <mxCell id="Wz6pm65x8kF1xeyHGKmY-21" value="" style="endArrow=classic;html=1;rounded=0;exitX=1;exitY=0;exitDx=0;exitDy=0;entryX=0;entryY=1;entryDx=0;entryDy=0;" parent="WIyWlLk6GJQsqaUBKTNV-1" source="Wz6pm65x8kF1xeyHGKmY-1" target="Wz6pm65x8kF1xeyHGKmY-3" edge="1">
          <mxGeometry width="50" height="50" relative="1" as="geometry">
            <mxPoint x="390" y="290" as="sourcePoint" />
            <mxPoint x="440" y="240" as="targetPoint" />
          </mxGeometry>
        </mxCell>
        <mxCell id="Wz6pm65x8kF1xeyHGKmY-22" value="" style="endArrow=classic;html=1;rounded=0;exitX=0.063;exitY=0.2;exitDx=0;exitDy=0;exitPerimeter=0;entryX=1;entryY=1;entryDx=0;entryDy=0;" parent="WIyWlLk6GJQsqaUBKTNV-1" source="Wz6pm65x8kF1xeyHGKmY-2" target="Wz6pm65x8kF1xeyHGKmY-3" edge="1">
          <mxGeometry width="50" height="50" relative="1" as="geometry">
            <mxPoint x="390" y="290" as="sourcePoint" />
            <mxPoint x="440" y="240" as="targetPoint" />
          </mxGeometry>
        </mxCell>
        <mxCell id="Wz6pm65x8kF1xeyHGKmY-23" value="Управляющий не зависит ни от кого, но в то же время его благополучие зависит от того, как идет бизнес;&lt;br&gt;Управляющий следит за всеми 3 работниками. &lt;br&gt;&lt;div&gt;Его обязанности:&lt;/div&gt;&lt;div&gt;- контроль; учет; бухгалтерские обязанности; админисративные; HR&amp;nbsp; и пр.&lt;br&gt;&lt;/div&gt;" style="text;strokeColor=none;align=center;fillColor=none;html=1;verticalAlign=middle;whiteSpace=wrap;rounded=0;" parent="WIyWlLk6GJQsqaUBKTNV-1" vertex="1">
          <mxGeometry x="560" y="-10" width="270" height="180" as="geometry" />
        </mxCell>
        <mxCell id="Wz6pm65x8kF1xeyHGKmY-24" value="Закусочная не зависит ни от кого (напрямую), но опоосредованно зависит ото всех; верно и обратное" style="text;strokeColor=none;align=center;fillColor=none;html=1;verticalAlign=middle;whiteSpace=wrap;rounded=0;" parent="WIyWlLk6GJQsqaUBKTNV-1" vertex="1">
          <mxGeometry x="560" y="-70" width="270" height="80" as="geometry" />
        </mxCell>
        <mxCell id="Wz6pm65x8kF1xeyHGKmY-26" value="&lt;div&gt;Уборщик зависит в принципе ото всех, но больше всех от управляющего (в принципе они зависят от него также, так что можно и двойную стрелку ставить смело). &lt;br&gt;&lt;/div&gt;&lt;div&gt;Его обязанности: следить за чистотой в закусочной, вовремя убирать пространство и не допускать свинарника. &lt;br&gt;&lt;/div&gt;" style="text;strokeColor=none;align=center;fillColor=none;html=1;verticalAlign=middle;whiteSpace=wrap;rounded=0;" parent="WIyWlLk6GJQsqaUBKTNV-1" vertex="1">
          <mxGeometry x="557" y="130" width="270" height="180" as="geometry" />
        </mxCell>
        <mxCell id="Wz6pm65x8kF1xeyHGKmY-27" value="&lt;div&gt;Уборщик зависит в принципе ото всех, но больше всех от управляющего (в принципе они зависят от него также, так что можно и двойную стрелку ставить смело). &lt;br&gt;&lt;/div&gt;&lt;div&gt;Его обязанности: следить за чистотой в закусочной, вовремя убирать пространство и не допускать свинарника. &lt;br&gt;&lt;/div&gt;" style="text;strokeColor=none;align=center;fillColor=none;html=1;verticalAlign=middle;whiteSpace=wrap;rounded=0;" parent="WIyWlLk6GJQsqaUBKTNV-1" vertex="1">
          <mxGeometry x="560" y="270" width="270" height="180" as="geometry" />
        </mxCell>
        <mxCell id="Wz6pm65x8kF1xeyHGKmY-29" value="" style="endArrow=classic;html=1;rounded=0;exitX=0;exitY=0.588;exitDx=0;exitDy=0;exitPerimeter=0;entryX=1;entryY=0.5;entryDx=0;entryDy=0;" parent="WIyWlLk6GJQsqaUBKTNV-1" source="Wz6pm65x8kF1xeyHGKmY-2" target="Wz6pm65x8kF1xeyHGKmY-1" edge="1">
          <mxGeometry width="50" height="50" relative="1" as="geometry">
            <mxPoint x="390" y="340" as="sourcePoint" />
            <mxPoint x="440" y="290" as="targetPoint" />
          </mxGeometry>
        </mxCell>
        <mxCell id="Wz6pm65x8kF1xeyHGKmY-30" value="&lt;div&gt;Официант зависит от управляющего, но прежде всего от повара. Потому что без него он не сможет выполнять свою работу. &lt;br&gt;&lt;/div&gt;&lt;div&gt;Его обязанности: собирать заказы, отпарвлять их повару, разносить заказы, собирать плату/давать сдачу.&lt;br&gt;&lt;/div&gt;" style="text;strokeColor=none;align=center;fillColor=none;html=1;verticalAlign=middle;whiteSpace=wrap;rounded=0;" parent="WIyWlLk6GJQsqaUBKTNV-1" vertex="1">
          <mxGeometry x="557" y="400" width="270" height="180" as="geometry" />
        </mxCell>
        <mxCell id="Wz6pm65x8kF1xeyHGKmY-31" value="&lt;div&gt;Повар зависит от официанта (иначе непонятно что готовить, так что стрелка двухсторонняя), и в меьшей степени от управляющего.&lt;/div&gt;&lt;div&gt;Обязанность - готовить пишу/напитки в соответствии со списком блюд и тем, что поставляет официант.&lt;br&gt;&lt;/div&gt;" style="text;strokeColor=none;align=center;fillColor=none;html=1;verticalAlign=middle;whiteSpace=wrap;rounded=0;" parent="WIyWlLk6GJQsqaUBKTNV-1" vertex="1">
          <mxGeometry x="560" y="530" width="270" height="180" as="geometry" />
        </mxCell>
      </root>
    </mxGraphModel>
  </diagram>
</mxfile>
